# Blender v2.92.0 OBJ File: 'scene1.blend'
# www.blender.org
mtllib command_center.mtl
o command_center
v -0.765368 -1.847759 0.000000
v -0.380832 -0.919409 1.000000
v -1.414215 -1.414213 0.000000
v -0.703686 -0.703685 1.000000
v -1.847760 -0.765366 0.000000
v -0.919410 -0.380831 1.000000
v -0.765368 -1.847759 1.000000
v -1.414215 -1.414213 1.000000
v -1.847760 -0.765366 1.000000
v -0.188565 -0.455234 1.500000
v -0.348422 -0.348421 1.500000
v -0.455234 -0.188564 1.500000
v -0.380832 -0.919409 1.500000
v -0.703686 -0.703685 1.500000
v -0.919410 -0.380831 1.500000
v -0.188565 -0.455234 1.750000
v -0.348422 -0.348421 1.750000
v -0.455234 -0.188564 1.750000
v 0.000000 -2.000000 0.000000
v 0.000000 -0.995162 1.000000
v 0.765368 -1.847759 0.000000
v 0.380832 -0.919409 1.000000
v 1.414215 -1.414213 0.000000
v 0.703686 -0.703685 1.000000
v 1.847760 -0.765366 0.000000
v 0.919410 -0.380831 1.000000
v 0.000000 -2.000000 1.000000
v 0.765368 -1.847759 1.000000
v 1.414215 -1.414213 1.000000
v 1.847760 -0.765366 1.000000
v 0.000000 -0.492742 1.500000
v 0.188565 -0.455234 1.500000
v 0.348422 -0.348421 1.500000
v 0.455234 -0.188564 1.500000
v 0.000000 -0.995162 1.500000
v 0.380832 -0.919409 1.500000
v 0.703686 -0.703685 1.500000
v 0.919410 -0.380831 1.500000
v 0.000000 -0.492742 1.750000
v 0.188565 -0.455234 1.750000
v 0.348422 -0.348421 1.750000
v 0.455234 -0.188564 1.750000
v -0.765368 1.847759 0.000000
v -0.380832 0.919409 1.000000
v -1.414215 1.414213 0.000000
v -0.703686 0.703685 1.000000
v -1.847760 0.765366 0.000000
v -0.919410 0.380831 1.000000
v -2.000000 0.000000 0.000000
v -0.995161 0.000000 1.000000
v -0.765368 1.847759 1.000000
v -1.414215 1.414213 1.000000
v -1.847760 0.765366 1.000000
v -2.000000 0.000000 1.000000
v -0.188565 0.455234 1.500000
v -0.348422 0.348421 1.500000
v -0.455234 0.188564 1.500000
v -0.492742 0.000000 1.500000
v -0.380832 0.919409 1.500000
v -0.703686 0.703685 1.500000
v -0.919410 0.380831 1.500000
v -0.995161 0.000000 1.500000
v -0.188565 0.455234 1.750000
v -0.348422 0.348421 1.750000
v -0.455234 0.188564 1.750000
v -0.492742 0.000000 1.750000
v 0.000000 2.000000 0.000000
v 0.000000 0.995162 1.000000
v 0.765368 1.847759 0.000000
v 0.380832 0.919409 1.000000
v 1.414215 1.414213 0.000000
v 0.703686 0.703685 1.000000
v 1.847760 0.765366 0.000000
v 0.919410 0.380831 1.000000
v 2.000000 0.000000 0.000000
v 0.995161 0.000000 1.000000
v 0.000000 2.000000 1.000000
v 0.765368 1.847759 1.000000
v 1.414215 1.414213 1.000000
v 1.847760 0.765366 1.000000
v 2.000000 0.000000 1.000000
v 0.000000 0.492742 1.500000
v 0.188565 0.455234 1.500000
v 0.348422 0.348421 1.500000
v 0.455234 0.188564 1.500000
v 0.492742 0.000000 1.500000
v 0.000000 0.995162 1.500000
v 0.380832 0.919409 1.500000
v 0.703686 0.703685 1.500000
v 0.919410 0.380831 1.500000
v 0.995161 0.000000 1.500000
v 0.000000 0.492742 1.750000
v 0.188565 0.455234 1.750000
v 0.348422 0.348421 1.750000
v 0.455234 0.188564 1.750000
v 0.492742 0.000000 1.750000
v 0.000000 0.000000 1.750000
vt 0.363080 0.857900
vt 0.363080 0.857900
vt 0.363080 0.857900
vt 0.363080 0.857900
vt 0.363080 0.857900
vt 0.363080 0.857900
vt 0.363080 0.857900
vt 0.363080 0.857900
vt 0.363080 0.857900
vt 0.363080 0.857900
vt 0.363080 0.857900
vt 0.363080 0.857900
vt 0.132101 0.656375
vt 0.132101 0.656375
vt 0.132101 0.656375
vt 0.132101 0.656375
vt 0.132101 0.656375
vt 0.132101 0.656375
vt 0.132101 0.656375
vt 0.132101 0.656375
vt 0.132101 0.656375
vt 0.132101 0.656375
vt 0.132101 0.656375
vt 0.132101 0.656375
vt 0.132101 0.656375
vt 0.132101 0.656375
vt 0.132101 0.656375
vt 0.138302 0.873402
vt 0.138302 0.873402
vt 0.138302 0.873402
vt 0.138302 0.873402
vt 0.138302 0.873402
vt 0.138302 0.873402
vt 0.138302 0.873402
vt 0.138302 0.873402
vt 0.138302 0.873402
vt 0.138302 0.873402
vt 0.363080 0.857900
vt 0.363080 0.857900
vt 0.363080 0.857900
vt 0.363080 0.857900
vt 0.363080 0.857900
vt 0.363080 0.857900
vt 0.363080 0.857900
vt 0.363080 0.857900
vt 0.363080 0.857900
vt 0.363080 0.857900
vt 0.363080 0.857900
vt 0.363080 0.857900
vt 0.132101 0.656375
vt 0.132101 0.656375
vt 0.132101 0.656375
vt 0.132101 0.656375
vt 0.132101 0.656375
vt 0.132101 0.656375
vt 0.132101 0.656375
vt 0.132101 0.656375
vt 0.132101 0.656375
vt 0.132101 0.656375
vt 0.132101 0.656375
vt 0.132101 0.656375
vt 0.138302 0.873402
vt 0.138302 0.873402
vt 0.138302 0.873402
vt 0.138302 0.873402
vt 0.138302 0.873402
vt 0.138302 0.873402
vt 0.138302 0.873402
vt 0.138302 0.873402
vt 0.363080 0.857900
vt 0.363080 0.857900
vt 0.363080 0.857900
vt 0.138302 0.873402
vt 0.363080 0.857900
vt 0.363080 0.857900
vt 0.363080 0.857900
vt 0.363080 0.857900
vt 0.363080 0.857900
vt 0.363080 0.857900
vt 0.363080 0.857900
vt 0.363080 0.857900
vt 0.363080 0.857900
vt 0.363080 0.857900
vt 0.363080 0.857900
vt 0.132101 0.656375
vt 0.132101 0.656375
vt 0.132101 0.656375
vt 0.132101 0.656375
vt 0.132101 0.656375
vt 0.132101 0.656375
vt 0.132101 0.656375
vt 0.132101 0.656375
vt 0.132101 0.656375
vt 0.132101 0.656375
vt 0.132101 0.656375
vt 0.132101 0.656375
vt 0.138302 0.873402
vt 0.138302 0.873402
vt 0.138302 0.873402
vt 0.138302 0.873402
vt 0.138302 0.873402
vt 0.138302 0.873402
vt 0.138302 0.873402
vt 0.363080 0.857900
vt 0.138302 0.873402
vt 0.363080 0.857900
vt 0.363080 0.857900
vt 0.363080 0.857900
vt 0.363080 0.857900
vt 0.363080 0.857900
vt 0.363080 0.857900
vt 0.363080 0.857900
vt 0.363080 0.857900
vt 0.363080 0.857900
vt 0.132101 0.656375
vt 0.132101 0.656375
vt 0.132101 0.656375
vt 0.132101 0.656375
vt 0.132101 0.656375
vt 0.132101 0.656375
vt 0.132101 0.656375
vt 0.132101 0.656375
vt 0.132101 0.656375
vt 0.138302 0.873402
vt 0.138302 0.873402
vt 0.138302 0.873402
vt 0.138302 0.873402
vt 0.138302 0.873402
vt 0.138302 0.873402
vn -0.7071 -0.7071 0.0000
vn -0.3827 -0.9239 0.0000
vn -0.9239 -0.3827 0.0000
vn -1.0000 -0.0000 0.0000
vn 0.0000 0.0000 1.0000
vn 0.0000 -1.0000 0.0000
vn 0.3827 -0.9239 0.0000
vn 0.7071 -0.7071 0.0000
vn 0.9239 -0.3827 0.0000
vn 1.0000 -0.0000 0.0000
vn -0.3827 0.9239 0.0000
vn 0.0000 1.0000 0.0000
vn -0.7071 0.7071 0.0000
vn -0.9239 0.3827 0.0000
vn 0.3827 0.9239 0.0000
vn 0.7071 0.7071 0.0000
vn 0.9239 0.3827 0.0000
usemtl palette
s 1
f 8/1/1 1/2/2 7/3/2
f 9/4/3 3/5/1 8/1/1
f 54/6/4 5/7/3 9/4/3
f 20/8/5 7/3/5 27/9/5
f 4/10/5 7/3/5 2/11/5
f 4/10/5 9/4/5 8/1/5
f 6/12/5 54/6/5 9/4/5
f 4/13/1 15/14/3 6/15/3
f 6/15/3 62/16/4 50/17/4
f 20/18/6 13/19/2 2/20/2
f 2/20/2 14/21/1 4/13/1
f 31/22/5 13/19/5 35/23/5
f 11/24/5 13/19/5 10/25/5
f 11/24/5 15/14/5 14/21/5
f 58/26/5 15/14/5 12/27/5
f 10/28/2 39/29/6 16/30/2
f 10/28/2 17/31/1 11/32/1
f 12/33/3 17/31/1 18/34/3
f 12/33/3 66/35/4 58/36/4
f 97/37/5 66/35/5 18/34/5
f 21/38/7 27/9/6 19/39/6
f 97/37/5 18/34/5 17/31/5
f 97/37/5 17/31/5 16/30/5
f 97/37/5 16/30/5 39/29/5
f 23/40/8 28/41/7 21/38/7
f 25/42/9 29/43/8 23/40/8
f 75/44/10 30/45/9 25/42/9
f 28/41/5 20/8/5 27/9/5
f 28/41/5 24/46/5 22/47/5
f 30/45/5 24/46/5 29/43/5
f 30/45/5 76/48/5 26/49/5
f 38/50/9 24/51/8 26/52/9
f 91/53/10 26/52/9 76/54/10
f 36/55/7 20/18/6 22/56/7
f 37/57/8 22/56/7 24/51/8
f 36/55/5 31/22/5 35/23/5
f 36/55/5 33/58/5 32/59/5
f 38/50/5 33/58/5 37/57/5
f 38/50/5 86/60/5 34/61/5
f 32/62/7 39/29/6 31/63/6
f 41/64/8 32/62/7 33/65/8
f 34/66/9 41/64/8 33/65/8
f 96/67/10 34/66/9 86/68/10
f 42/69/5 96/67/5 97/37/5
f 43/70/11 77/71/12 67/72/12
f 41/64/5 42/69/5 97/37/5
f 40/73/5 41/64/5 97/37/5
f 39/29/5 40/73/5 97/37/5
f 45/74/13 51/75/11 43/70/11
f 47/76/14 52/77/13 45/74/13
f 49/78/4 53/79/14 47/76/14
f 51/75/5 68/80/5 77/71/5
f 51/75/5 46/81/5 44/82/5
f 53/79/5 46/81/5 52/77/5
f 53/79/5 50/83/5 48/84/5
f 61/85/14 46/86/13 48/87/14
f 62/16/4 48/87/14 50/17/4
f 59/88/11 68/89/12 44/90/11
f 60/91/13 44/90/11 46/86/13
f 59/88/5 82/92/5 87/93/5
f 59/88/5 56/94/5 55/95/5
f 61/85/5 56/94/5 60/91/5
f 61/85/5 58/26/5 57/96/5
f 55/97/11 92/98/12 82/99/12
f 64/100/13 55/97/11 56/101/13
f 57/102/14 64/100/13 56/101/13
f 66/35/4 57/102/14 58/36/4
f 65/103/5 66/35/5 97/37/5
f 78/104/15 67/72/12 77/71/12
f 64/100/5 65/103/5 97/37/5
f 63/105/5 64/100/5 97/37/5
f 92/98/5 63/105/5 97/37/5
f 79/106/16 69/107/15 78/104/15
f 80/108/17 71/109/16 79/106/16
f 81/110/10 73/111/17 80/108/17
f 68/80/5 78/104/5 77/71/5
f 72/112/5 78/104/5 70/113/5
f 72/112/5 80/108/5 79/106/5
f 74/114/5 81/110/5 80/108/5
f 72/115/16 90/116/17 74/117/17
f 74/117/17 91/53/10 76/54/10
f 68/89/12 88/118/15 70/119/15
f 70/119/15 89/120/16 72/115/16
f 82/92/5 88/118/5 87/93/5
f 84/121/5 88/118/5 83/122/5
f 84/121/5 90/116/5 89/120/5
f 86/60/5 90/116/5 85/123/5
f 83/124/15 92/98/12 93/125/15
f 83/124/15 94/126/16 84/127/16
f 85/128/17 94/126/16 95/129/17
f 85/128/17 96/67/10 86/68/10
f 97/37/5 96/67/5 95/129/5
f 97/37/5 95/129/5 94/126/5
f 97/37/5 94/126/5 93/125/5
f 97/37/5 93/125/5 92/98/5
f 7/3/2 19/39/6 27/9/6
f 8/1/1 3/5/1 1/2/2
f 9/4/3 5/7/3 3/5/1
f 54/6/4 49/78/4 5/7/3
f 20/8/5 2/11/5 7/3/5
f 4/10/5 8/1/5 7/3/5
f 4/10/5 6/12/5 9/4/5
f 6/12/5 50/83/5 54/6/5
f 4/13/1 14/21/1 15/14/3
f 6/15/3 15/14/3 62/16/4
f 20/18/6 35/23/6 13/19/2
f 2/20/2 13/19/2 14/21/1
f 31/22/5 10/25/5 13/19/5
f 11/24/5 14/21/5 13/19/5
f 11/24/5 12/27/5 15/14/5
f 58/26/5 62/16/5 15/14/5
f 10/28/2 31/63/6 39/29/6
f 10/28/2 16/30/2 17/31/1
f 12/33/3 11/32/1 17/31/1
f 12/33/3 18/34/3 66/35/4
f 21/38/7 28/41/7 27/9/6
f 23/40/8 29/43/8 28/41/7
f 25/42/9 30/45/9 29/43/8
f 75/44/10 81/110/10 30/45/9
f 28/41/5 22/47/5 20/8/5
f 28/41/5 29/43/5 24/46/5
f 30/45/5 26/49/5 24/46/5
f 30/45/5 81/110/5 76/48/5
f 38/50/9 37/57/8 24/51/8
f 91/53/10 38/50/9 26/52/9
f 36/55/7 35/23/6 20/18/6
f 37/57/8 36/55/7 22/56/7
f 36/55/5 32/59/5 31/22/5
f 36/55/5 37/57/5 33/58/5
f 38/50/5 34/61/5 33/58/5
f 38/50/5 91/53/5 86/60/5
f 32/62/7 40/73/7 39/29/6
f 41/64/8 40/73/7 32/62/7
f 34/66/9 42/69/9 41/64/8
f 96/67/10 42/69/9 34/66/9
f 43/70/11 51/75/11 77/71/12
f 45/74/13 52/77/13 51/75/11
f 47/76/14 53/79/14 52/77/13
f 49/78/4 54/6/4 53/79/14
f 51/75/5 44/82/5 68/80/5
f 51/75/5 52/77/5 46/81/5
f 53/79/5 48/84/5 46/81/5
f 53/79/5 54/6/5 50/83/5
f 61/85/14 60/91/13 46/86/13
f 62/16/4 61/85/14 48/87/14
f 59/88/11 87/93/12 68/89/12
f 60/91/13 59/88/11 44/90/11
f 59/88/5 55/95/5 82/92/5
f 59/88/5 60/91/5 56/94/5
f 61/85/5 57/96/5 56/94/5
f 61/85/5 62/16/5 58/26/5
f 55/97/11 63/105/11 92/98/12
f 64/100/13 63/105/11 55/97/11
f 57/102/14 65/103/14 64/100/13
f 66/35/4 65/103/14 57/102/14
f 78/104/15 69/107/15 67/72/12
f 79/106/16 71/109/16 69/107/15
f 80/108/17 73/111/17 71/109/16
f 81/110/10 75/44/10 73/111/17
f 68/80/5 70/113/5 78/104/5
f 72/112/5 79/106/5 78/104/5
f 72/112/5 74/114/5 80/108/5
f 74/114/5 76/48/5 81/110/5
f 72/115/16 89/120/16 90/116/17
f 74/117/17 90/116/17 91/53/10
f 68/89/12 87/93/12 88/118/15
f 70/119/15 88/118/15 89/120/16
f 82/92/5 83/122/5 88/118/5
f 84/121/5 89/120/5 88/118/5
f 84/121/5 85/123/5 90/116/5
f 86/60/5 91/53/5 90/116/5
f 83/124/15 82/99/12 92/98/12
f 83/124/15 93/125/15 94/126/16
f 85/128/17 84/127/16 94/126/16
f 85/128/17 95/129/17 96/67/10
f 7/3/2 1/2/2 19/39/6
