# Blender v2.92.0 OBJ File: 'scene1.blend'
# www.blender.org
mtllib turret.mtl
o turret
v 0.000000 1.000000 0.000000
v 0.000000 1.000000 1.000000
v 0.382683 0.923880 0.000000
v 0.382683 0.923880 1.000000
v 0.707107 0.707107 0.000000
v 0.707107 0.707107 1.000000
v 0.923880 0.382683 0.000000
v 0.923880 0.382683 1.000000
v 1.000000 -0.000000 0.000000
v 1.000000 -0.000000 1.000000
v 0.923880 -0.382684 0.000000
v 0.923880 -0.382684 1.000000
v 0.707107 -0.707107 0.000000
v 0.707107 -0.707107 1.000000
v 0.382683 -0.923880 0.000000
v 0.382683 -0.923880 1.000000
v 0.000000 -1.000000 0.000000
v 0.000000 -1.000000 1.000000
v -0.382683 -0.923880 0.000000
v -0.382683 -0.923880 1.000000
v -0.707107 -0.707107 0.000000
v -0.707107 -0.707107 1.000000
v -0.923880 -0.382684 0.000000
v -0.923880 -0.382684 1.000000
v -1.000000 0.000000 0.000000
v -1.000000 0.000000 1.000000
v -0.923879 0.382684 0.000000
v -0.923879 0.382684 1.000000
v -0.707107 0.707107 0.000000
v -0.707107 0.707107 1.000000
v -0.382683 0.923880 0.000000
v -0.382683 0.923880 1.000000
v -0.191341 0.461940 1.000000
v -0.353553 0.353554 1.000000
v -0.461940 0.191342 1.000000
v -0.500000 0.000000 1.000000
v -0.461940 -0.191342 1.000000
v -0.353553 -0.353554 1.000000
v -0.191342 -0.461940 1.000000
v 0.000000 -0.500000 1.000000
v 0.191342 -0.461940 1.000000
v 0.353553 -0.353553 1.000000
v 0.461940 -0.191342 1.000000
v 0.500000 -0.000000 1.000000
v 0.461940 0.191342 1.000000
v 0.353553 0.353553 1.000000
v 0.191342 0.461940 1.000000
v 0.000000 0.500000 1.000000
v -0.191341 0.461940 1.500000
v -0.353553 0.353554 1.500000
v -0.461940 0.191342 1.500000
v -0.500000 0.000000 1.500000
v -0.461940 -0.191342 1.500000
v -0.353553 -0.353554 1.500000
v -0.191342 -0.461940 1.500000
v 0.000000 -0.500000 1.500000
v 0.191342 -0.461940 1.500000
v 0.353553 -0.353553 1.500000
v 0.461940 -0.191342 1.500000
v 0.500000 -0.000000 1.500000
v 0.461940 0.191342 1.500000
v 0.353553 0.353553 1.500000
v 0.191342 0.461940 1.500000
v 0.000000 0.500000 1.500000
v 0.000000 -0.000000 1.500000
v 0.000000 1.500000 0.500000
v 0.000000 1.500000 0.700000
v 0.000000 0.500000 0.700000
v 0.141421 1.500000 0.641421
v 0.141421 0.500000 0.641421
v 0.200000 1.500000 0.500000
v 0.200000 0.500000 0.500000
v 0.141421 1.500000 0.358579
v 0.141421 0.500000 0.358579
v -0.000000 1.500000 0.300000
v -0.000000 0.500000 0.300000
v -0.141421 1.500000 0.358579
v -0.141421 0.500000 0.358579
v -0.200000 1.500000 0.500000
v -0.200000 0.500000 0.500000
v -0.141421 1.500000 0.641421
v -0.141421 0.500000 0.641421
vt 0.377854 0.375595
vt 0.377854 0.375595
vt 0.377854 0.375595
vt 0.373450 0.117598
vt 0.373450 0.117598
vt 0.373450 0.117598
vt 0.377854 0.375595
vt 0.373450 0.117598
vt 0.373450 0.117598
vt 0.377854 0.375595
vt 0.373450 0.117598
vt 0.373450 0.117598
vt 0.377854 0.375595
vt 0.373450 0.117598
vt 0.373450 0.117598
vt 0.377854 0.375595
vt 0.373450 0.117598
vt 0.373450 0.117598
vt 0.377854 0.375595
vt 0.373450 0.117598
vt 0.373450 0.117598
vt 0.377854 0.375595
vt 0.373450 0.117598
vt 0.373450 0.117598
vt 0.373450 0.117598
vt 0.144230 0.868521
vt 0.144230 0.868521
vt 0.144230 0.868521
vt 0.124077 0.612739
vt 0.124077 0.612739
vt 0.124077 0.612739
vt 0.144230 0.868521
vt 0.144230 0.868521
vt 0.124077 0.612739
vt 0.124077 0.612739
vt 0.144230 0.868521
vt 0.144230 0.868521
vt 0.124077 0.612739
vt 0.124077 0.612739
vt 0.144230 0.868521
vt 0.144230 0.868521
vt 0.124077 0.612739
vt 0.124077 0.612739
vt 0.144230 0.868521
vt 0.144230 0.868521
vt 0.124077 0.612739
vt 0.124077 0.612739
vt 0.144230 0.868521
vt 0.144230 0.868521
vt 0.124077 0.612739
vt 0.124077 0.612739
vt 0.144230 0.868521
vt 0.144230 0.868521
vt 0.124077 0.612739
vt 0.124077 0.612739
vt 0.144230 0.868521
vt 0.144230 0.868521
vt 0.124077 0.612739
vt 0.124077 0.612739
vt 0.144230 0.868521
vt 0.144230 0.868521
vt 0.124077 0.612739
vt 0.124077 0.612739
vt 0.144230 0.868521
vt 0.144230 0.868521
vt 0.124077 0.612739
vt 0.124077 0.612739
vt 0.144230 0.868521
vt 0.144230 0.868521
vt 0.124077 0.612739
vt 0.124077 0.612739
vt 0.144230 0.868521
vt 0.144230 0.868521
vt 0.124077 0.612739
vt 0.124077 0.612739
vt 0.144230 0.868521
vt 0.144230 0.868521
vt 0.124077 0.612739
vt 0.124077 0.612739
vt 0.144230 0.868521
vt 0.144230 0.868521
vt 0.124077 0.612739
vt 0.124077 0.612739
vt 0.124077 0.612739
vt 0.124077 0.612739
vt 0.144230 0.868521
vt 0.144230 0.868521
vt 0.124077 0.612739
vt 0.368233 0.140704
vt 0.368233 0.140704
vt 0.368233 0.140704
vt 0.144230 0.868521
vt 0.368233 0.140704
vt 0.368233 0.140704
vt 0.368233 0.140704
vt 0.368233 0.140704
vt 0.368233 0.140704
vt 0.368233 0.140704
vt 0.368233 0.140704
vt 0.368233 0.140704
vt 0.368233 0.140704
vt 0.368233 0.140704
vt 0.368233 0.140704
vt 0.368233 0.140704
vt 0.368233 0.140704
vt 0.368233 0.140704
vt 0.368233 0.140704
vt 0.368233 0.140704
vt 0.368233 0.140704
vt 0.368233 0.140704
vt 0.368233 0.140704
vt 0.368233 0.140704
vt 0.368233 0.140704
vt 0.368233 0.140704
vt 0.368233 0.140704
vt 0.368233 0.140704
vt 0.368233 0.140704
vt 0.368233 0.140704
vt 0.368233 0.140704
vt 0.368233 0.140704
vt 0.368233 0.140704
vt 0.389936 0.384085
vt 0.389936 0.384085
vt 0.389936 0.384085
vt 0.389936 0.384085
vt 0.389936 0.384085
vt 0.389936 0.384085
vt 0.389936 0.384085
vt 0.389936 0.384085
vt 0.389936 0.384085
vt 0.389936 0.384085
vt 0.389936 0.384085
vt 0.389936 0.384085
vt 0.389936 0.384085
vt 0.389936 0.384085
vt 0.389936 0.384085
vt 0.389936 0.384085
vt 0.389936 0.384085
vn 0.0000 1.0000 0.0000
vn 0.3827 -0.0000 0.9239
vn 0.9239 -0.0000 0.3827
vn 0.9239 0.0000 -0.3827
vn 0.3827 0.0000 -0.9239
vn -0.3827 0.0000 -0.9239
vn -0.9239 0.0000 -0.3827
vn -0.9239 -0.0000 0.3827
vn -0.3827 -0.0000 0.9239
vn -0.0000 0.0000 1.0000
vn 0.3827 0.9239 0.0000
vn 0.7071 0.7071 0.0000
vn 0.9239 0.3827 0.0000
vn 1.0000 0.0000 0.0000
vn 0.9239 -0.3827 0.0000
vn 0.7071 -0.7071 0.0000
vn 0.3827 -0.9239 0.0000
vn 0.0000 -1.0000 0.0000
vn -0.3827 -0.9239 0.0000
vn -0.7071 -0.7071 0.0000
vn -0.9239 -0.3827 0.0000
vn -1.0000 0.0000 0.0000
vn -0.9239 0.3827 0.0000
vn -0.7071 0.7071 0.0000
vn -0.3827 0.9239 0.0000
usemtl palette
s off
f 66/1/1 67/2/1 69/3/1
f 68/4/2 69/5/2 67/6/2
f 66/1/1 69/3/1 71/7/1
f 70/8/3 71/9/3 69/5/3
f 66/1/1 71/7/1 73/10/1
f 72/11/4 73/12/4 71/9/4
f 66/1/1 73/10/1 75/13/1
f 74/14/5 75/15/5 73/12/5
f 66/1/1 75/13/1 77/16/1
f 76/17/6 77/18/6 75/15/6
f 66/1/1 77/16/1 79/19/1
f 78/20/7 79/21/7 77/18/7
f 66/1/1 79/19/1 81/22/1
f 80/23/8 81/24/8 79/21/8
f 66/1/1 81/22/1 67/2/1
f 81/24/9 68/4/9 67/6/9
f 68/4/2 70/8/2 69/5/2
f 70/8/3 72/11/3 71/9/3
f 72/11/4 74/14/4 73/12/4
f 74/14/5 76/17/5 75/15/5
f 76/17/6 78/20/6 77/18/6
f 78/20/7 80/23/7 79/21/7
f 80/23/8 82/25/8 81/24/8
f 81/24/9 82/25/9 68/4/9
s 1
f 46/26/10 4/27/10 47/28/10
f 2/29/1 3/30/11 1/31/1
f 45/32/10 6/33/10 46/26/10
f 4/34/11 5/35/12 3/30/11
f 45/32/10 10/36/10 8/37/10
f 6/38/12 7/39/13 5/35/12
f 43/40/10 10/36/10 44/41/10
f 8/42/13 9/43/14 7/39/13
f 43/40/10 14/44/10 12/45/10
f 10/46/14 11/47/15 9/43/14
f 41/48/10 14/44/10 42/49/10
f 12/50/15 13/51/16 11/47/15
f 40/52/10 16/53/10 41/48/10
f 14/54/16 15/55/17 13/51/16
f 40/52/10 20/56/10 18/57/10
f 16/58/17 17/59/18 15/55/17
f 38/60/10 20/56/10 39/61/10
f 18/62/18 19/63/19 17/59/18
f 37/64/10 22/65/10 38/60/10
f 20/66/19 21/67/20 19/63/19
f 37/64/10 26/68/10 24/69/10
f 22/70/20 23/71/21 21/67/20
f 35/72/10 26/68/10 36/73/10
f 24/74/21 25/75/22 23/71/21
f 34/76/10 28/77/10 35/72/10
f 26/78/22 27/79/23 25/75/22
f 33/80/10 30/81/10 34/76/10
f 28/82/23 29/83/24 27/79/23
f 30/84/24 31/85/25 29/83/24
f 47/28/10 2/86/10 48/87/10
f 32/88/25 1/31/1 31/85/25
f 37/89/21 52/90/22 36/91/22
f 48/87/10 32/92/10 33/80/10
f 44/93/14 59/94/15 43/95/15
f 36/91/22 51/96/23 35/97/23
f 43/95/15 58/98/16 42/99/16
f 35/97/23 50/100/24 34/101/24
f 42/99/16 57/102/17 41/103/17
f 34/101/24 49/104/25 33/105/25
f 41/103/17 56/106/18 40/107/18
f 48/108/1 63/109/11 47/110/11
f 33/105/25 64/111/1 48/108/1
f 40/107/18 55/112/19 39/113/19
f 47/110/11 62/114/12 46/115/12
f 39/113/19 54/116/20 38/117/20
f 46/115/12 61/118/13 45/119/13
f 38/117/20 53/120/21 37/89/21
f 45/119/13 60/121/14 44/93/14
f 49/122/10 50/123/10 65/124/10
f 60/125/10 65/124/10 59/126/10
f 56/127/10 65/124/10 55/128/10
f 64/129/10 65/124/10 63/130/10
f 58/131/10 65/124/10 57/132/10
f 65/124/10 50/123/10 51/133/10
f 61/134/10 65/124/10 60/125/10
f 53/135/10 65/124/10 52/136/10
f 62/137/10 65/124/10 61/134/10
f 54/138/10 65/124/10 53/135/10
f 63/130/10 65/124/10 62/137/10
f 55/128/10 65/124/10 54/138/10
f 59/126/10 65/124/10 58/131/10
f 51/133/10 52/136/10 65/124/10
f 57/132/10 65/124/10 56/127/10
f 65/124/10 64/129/10 49/122/10
f 46/26/10 6/33/10 4/27/10
f 2/29/1 4/34/11 3/30/11
f 45/32/10 8/37/10 6/33/10
f 4/34/11 6/38/12 5/35/12
f 45/32/10 44/41/10 10/36/10
f 6/38/12 8/42/13 7/39/13
f 43/40/10 12/45/10 10/36/10
f 8/42/13 10/46/14 9/43/14
f 43/40/10 42/49/10 14/44/10
f 10/46/14 12/50/15 11/47/15
f 41/48/10 16/53/10 14/44/10
f 12/50/15 14/54/16 13/51/16
f 40/52/10 18/57/10 16/53/10
f 14/54/16 16/58/17 15/55/17
f 40/52/10 39/61/10 20/56/10
f 16/58/17 18/62/18 17/59/18
f 38/60/10 22/65/10 20/56/10
f 18/62/18 20/66/19 19/63/19
f 37/64/10 24/69/10 22/65/10
f 20/66/19 22/70/20 21/67/20
f 37/64/10 36/73/10 26/68/10
f 22/70/20 24/74/21 23/71/21
f 35/72/10 28/77/10 26/68/10
f 24/74/21 26/78/22 25/75/22
f 34/76/10 30/81/10 28/77/10
f 26/78/22 28/82/23 27/79/23
f 33/80/10 32/92/10 30/81/10
f 28/82/23 30/84/24 29/83/24
f 30/84/24 32/88/25 31/85/25
f 47/28/10 4/27/10 2/86/10
f 32/88/25 2/29/1 1/31/1
f 37/89/21 53/120/21 52/90/22
f 48/87/10 2/86/10 32/92/10
f 44/93/14 60/121/14 59/94/15
f 36/91/22 52/90/22 51/96/23
f 43/95/15 59/94/15 58/98/16
f 35/97/23 51/96/23 50/100/24
f 42/99/16 58/98/16 57/102/17
f 34/101/24 50/100/24 49/104/25
f 41/103/17 57/102/17 56/106/18
f 48/108/1 64/111/1 63/109/11
f 33/105/25 49/104/25 64/111/1
f 40/107/18 56/106/18 55/112/19
f 47/110/11 63/109/11 62/114/12
f 39/113/19 55/112/19 54/116/20
f 46/115/12 62/114/12 61/118/13
f 38/117/20 54/116/20 53/120/21
f 45/119/13 61/118/13 60/121/14
